<?xml version="1.0" standalone="no"?>
<!DOCTYPE svg PUBLIC "-//W3C//DTD SVG 20010904//EN"
 "http://www.w3.org/TR/2001/REC-SVG-20010904/DTD/svg10.dtd">
<svg version="1.0" xmlns="http://www.w3.org/2000/svg"
 width="116.000000pt" height="116.000000pt" viewBox="0 0 116.000000 116.000000"
 preserveAspectRatio="xMidYMid meet">
<metadata>
Created by potrace 1.11, written by Peter Selinger 2001-2013
</metadata>
<g transform="translate(0.000000,116.000000) scale(0.100000,-0.100000)"
fill="#000000" stroke="none">
<path d="M460 1105 c-190 -53 -336 -207 -369 -390 -17 -94 -19 -119 -9 -138 6
-12 5 -17 -4 -17 -9 0 -10 -2 -2 -8 7 -4 13 -23 15 -42 2 -19 7 -40 12 -47 5
-7 6 -17 2 -23 -3 -5 -2 -10 3 -10 12 0 34 -49 26 -61 -3 -5 -2 -9 3 -8 20 3
27 -2 13 -11 -11 -7 -11 -10 -2 -10 7 0 10 -4 7 -10 -3 -6 1 -7 9 -4 14 6 21
-5 17 -28 0 -5 4 -8 10 -8 6 0 25 -15 42 -32 18 -18 43 -41 57 -50 21 -15 23
-19 10 -27 -9 -7 -10 -11 -3 -11 6 0 15 4 18 10 4 6 20 3 43 -9 20 -10 48 -22
62 -26 14 -4 31 -15 38 -24 8 -9 11 -10 7 -3 -4 7 0 12 10 12 10 0 13 -5 9
-12 -5 -8 0 -7 11 2 10 8 16 10 13 4 -5 -7 17 -9 64 -8 41 1 66 -1 58 -6 -8
-5 -15 -16 -16 -24 -1 -9 2 -14 7 -10 5 3 7 10 4 15 -6 8 8 13 27 10 4 0 5 6
2 13 -4 11 2 14 20 12 14 -2 26 1 26 7 0 5 11 7 25 5 14 -3 25 -2 25 1 0 3 11
11 24 17 18 9 28 9 36 0 8 -8 9 -6 4 8 -5 13 -4 17 4 12 7 -4 12 -3 12 3 0 6
11 13 25 17 14 3 22 11 18 17 -4 6 2 8 15 5 14 -4 20 -2 16 4 -7 11 75 95 88
91 4 -2 4 5 1 14 -5 13 -2 15 13 9 14 -5 16 -4 7 4 -8 9 -7 20 8 44 60 102 76
233 44 358 -41 160 -164 294 -321 349 -79 27 -211 34 -284 14z"/>
<path d="M926 247 c-16 -12 -16 -13 2 -13 10 0 19 6 19 13 0 7 -1 13 -2 13 -1
0 -9 -6 -19 -13z"/>
<path d="M370 139 c0 -5 5 -7 10 -4 6 3 10 8 10 11 0 2 -4 4 -10 4 -5 0 -10
-5 -10 -11z"/>
<path d="M395 131 c-3 -5 -2 -12 3 -15 5 -3 9 1 9 9 0 17 -3 19 -12 6z"/>
<path d="M713 115 c0 -8 4 -12 9 -9 5 3 6 10 3 15 -9 13 -12 11 -12 -6z"/>
<path d="M677 109 c7 -7 15 -10 18 -7 3 3 -2 9 -12 12 -14 6 -15 5 -6 -5z"/>
<path d="M530 102 c0 -5 7 -9 15 -9 8 0 12 4 9 9 -7 10 -24 10 -24 0z"/>
<path d="M573 95 c0 -8 4 -12 9 -9 5 3 6 10 3 15 -9 13 -12 11 -12 -6z"/>
</g>
</svg>
